# xmcd CD database file
#
# Track frame offsets:
#	150
#	11940
#	28307
#	48240
#	67240
#	89842
#	107295
#	131405
#	150065
#	174335
#	188567
#	204752
#	224520
#	240407
#	256932
#	275455
#	298235
#	320365
#
# Disc length: 4558 seconds
#
# Revision: 0
# Processed by: cddbd v1.5.1PL0 Copyright (c) Steve Scherf et al.
# Submitted via: CDex 1.51
#
DISCID=fc11cc12
DTITLE=Various Artist - ど根性ヒッツ VOL.6
DYEAR=1996
DGENRE=Pop
TTITLE0=フィンガー5_学園天国
TTITLE1=もんた＆ブラザース_デザイアー
TTITLE2=世良公則＆ツイスト_あんたのバラード
TTITLE3=雅夢_愛はかげろう
TTITLE4=伊藤敏博_サヨナラ模様
TTITLE5=大橋純子_たそがれマイ・ラブ
TTITLE6=来生たかお_Goodbye Day
TTITLE7=小椋佳_シクラメンのかほり
TTITLE8=円広志_夢想花
TTITLE9=小坂恭子_思い出まくら
TTITLE10=丸山佳子_どうぞこのまま
TTITLE11=堀内孝雄_愛しき日々
TTITLE12=大塚博堂_めぐり逢い紡いで
TTITLE13=沢田聖子_都会人
TTITLE14=因幡晃_別涙-わかれ-
TTITLE15=谷村新司_陽はまた昇る
TTITLE16=クリスタルキング_大都会
TTITLE17=グレープ_精霊流し
EXTD=YEAR: 1996
EXTT0=
EXTT1=
EXTT2=
EXTT3=
EXTT4=
EXTT5=
EXTT6=
EXTT7=
EXTT8=
EXTT9=
EXTT10=
EXTT11=
EXTT12=
EXTT13=
EXTT14=
EXTT15=
EXTT16=
EXTT17=
PLAYORDER=
